<?xml version="1.0" encoding="utf-8"?>
<!-- Generator: Adobe Illustrator 25.2.3, SVG Export Plug-In . SVG Version: 6.00 Build 0)  -->
<svg version="1.1" id="Layer_1" xmlns="http://www.w3.org/2000/svg" xmlns:xlink="http://www.w3.org/1999/xlink" x="0px" y="0px"
	 viewBox="0 0 570.1 65" style="enable-background:new 0 0 570.1 65;" xml:space="preserve">
<style type="text/css">
	.st0{fill:#FFFFFF;}
	.st1{fill:#DA0175;}
</style>
<g>
	<g>
		<path class="st0" d="M35.4,20v6.2H14.8c-5.8,0-8.7,3-8.7,9.1v14c0,6.1,2.9,9.2,8.7,9.2h20.6v6.2H13.7C4.5,64.7,0,59.9,0,50.4V34.3
			C0,24.8,4.5,20,13.7,20H35.4z"/>
		<path class="st0" d="M50.7,20.1v29.3c0,6.1,2.9,9.2,8.6,9.2h14.2c5.8,0,8.7-3.1,8.7-9.2V20.1h6v30.3c0,9.5-4.6,14.3-13.7,14.3
			H58.3c-9.1,0-13.7-4.8-13.7-14.3V20.1H50.7z"/>
		<path class="st0" d="M106.7,0v49.4c0,6.1,2.9,9.2,8.6,9.2h14.4c5.8,0,8.7-3.1,8.7-9.2v-14c0-6.1-2.9-9.1-8.7-9.1h-20V20h21.1
			c9.1,0,13.7,4.8,13.7,14.3v16.1c0,9.5-4.5,14.3-13.7,14.3h-16.7c-9.1,0-13.7-4.8-13.7-14.3V0H106.7z"/>
		<path class="st0" d="M162,49.4c0,6.1,3,9.2,9.1,9.2h13c6,0,9.1-3.1,9.1-9.2v-14c0-6.1-3-9.1-9.1-9.1h-13c-6,0-9.1,3-9.1,9.1V49.4z
			 M185.2,20c9.4,0,14.2,4.8,14.2,14.3v16.1c0,9.5-4.8,14.3-14.2,14.3h-15.4c-9.5,0-14.2-4.8-14.2-14.3V34.3
			c0-9.5,4.7-14.3,14.2-14.3H185.2z"/>
		<path class="st0" d="M247.2,20v5.4h-27.1c-3.8,0-5.6,1.8-5.6,5.3v3.5c0,3.3,1.7,4.9,5.2,4.9h19.8c6.4,0,9.6,3.1,9.6,9.2v6.5
			c0,6.6-3.4,9.9-10.3,9.9H209v-5.4h28.2c4,0,6-1.7,6-5.3v-5c0-3.3-1.7-4.9-5.1-4.9h-19.8c-6.4,0-9.6-3.1-9.6-9.2v-5
			c0-6.5,3.4-9.8,10.1-9.8H247.2z"/>
	</g>
	<g>
		<path class="st1" d="M284.5,19.4h6.7l-15.8,45.2h-6.7L284.5,19.4z"/>
		<path class="st1" d="M297.9,19.4h6.7l-15.8,45.2h-6.7L297.9,19.4z"/>
		<path class="st0" d="M332.4,32c2.1,1.9,3.2,4.8,3.2,8.6v14.7h-7v-3.2c-1.4,2.4-4,3.6-7.9,3.6c-2,0-3.7-0.3-5.2-1
			c-1.5-0.7-2.6-1.6-3.3-2.8c-0.8-1.2-1.2-2.5-1.2-4c0-2.4,0.9-4.3,2.7-5.7c1.8-1.4,4.6-2.1,8.4-2.1h5.9c0-1.6-0.5-2.9-1.5-3.8
			c-1-0.9-2.5-1.3-4.5-1.3c-1.4,0-2.7,0.2-4.1,0.6c-1.3,0.4-2.5,1-3.4,1.8l-2.7-5.2c1.4-1,3.1-1.8,5.1-2.3c2-0.5,4-0.8,6.1-0.8
			C327.2,29.1,330.2,30.1,332.4,32z M326,49.8c1-0.6,1.7-1.5,2.1-2.6v-2.6H323c-3.1,0-4.6,1-4.6,3c0,1,0.4,1.7,1.1,2.3
			c0.8,0.6,1.8,0.8,3.1,0.8C323.9,50.6,325,50.4,326,49.8z"/>
		<path class="st0" d="M345.8,54c-2.2-1.1-3.9-2.7-5.1-4.7c-1.2-2-1.8-4.3-1.8-6.9s0.6-4.8,1.8-6.9c1.2-2,2.9-3.6,5.1-4.7
			c2.2-1.1,4.7-1.7,7.4-1.7c2.7,0,5.1,0.6,7.1,1.7c2,1.1,3.5,2.8,4.4,4.9l-5.8,3.1c-1.3-2.4-3.3-3.6-5.8-3.6c-2,0-3.6,0.6-4.8,1.9
			c-1.3,1.3-1.9,3-1.9,5.2s0.6,4,1.9,5.2c1.3,1.3,2.9,1.9,4.8,1.9c2.6,0,4.5-1.2,5.8-3.6l5.8,3.2c-0.9,2-2.4,3.6-4.4,4.8
			c-2,1.2-4.4,1.7-7.1,1.7C350.5,55.7,348,55.1,345.8,54z"/>
		<path class="st0" d="M387.8,32c2.1,1.9,3.2,4.8,3.2,8.6v14.7h-7v-3.2c-1.4,2.4-4,3.6-7.9,3.6c-2,0-3.7-0.3-5.2-1
			c-1.5-0.7-2.6-1.6-3.3-2.8c-0.8-1.2-1.2-2.5-1.2-4c0-2.4,0.9-4.3,2.7-5.7c1.8-1.4,4.6-2.1,8.4-2.1h5.9c0-1.6-0.5-2.9-1.5-3.8
			c-1-0.9-2.5-1.3-4.5-1.3c-1.4,0-2.7,0.2-4.1,0.6c-1.3,0.4-2.5,1-3.4,1.8l-2.7-5.2c1.4-1,3.1-1.8,5.1-2.3c2-0.5,4-0.8,6.1-0.8
			C382.5,29.1,385.6,30.1,387.8,32z M381.4,49.8c1-0.6,1.7-1.5,2.1-2.6v-2.6h-5.1c-3.1,0-4.6,1-4.6,3c0,1,0.4,1.7,1.1,2.3
			c0.8,0.6,1.8,0.8,3.1,0.8C379.2,50.6,380.4,50.4,381.4,49.8z"/>
		<path class="st0" d="M423.4,19.7v35.6h-7.1v-3c-1.9,2.2-4.5,3.4-8.1,3.4c-2.4,0-4.6-0.5-6.6-1.6c-2-1.1-3.5-2.6-4.6-4.7
			c-1.1-2-1.7-4.3-1.7-7c0-2.7,0.6-5,1.7-7c1.1-2,2.7-3.6,4.6-4.7c2-1.1,4.2-1.6,6.6-1.6c3.3,0,5.9,1,7.7,3.1V19.7H423.4z
			 M414.1,47.6c1.2-1.3,1.9-3,1.9-5.2s-0.6-3.9-1.9-5.2c-1.2-1.3-2.8-1.9-4.7-1.9c-1.9,0-3.5,0.6-4.7,1.9c-1.2,1.3-1.9,3-1.9,5.2
			s0.6,3.9,1.9,5.2c1.2,1.3,2.8,1.9,4.7,1.9C411.3,49.5,412.9,48.9,414.1,47.6z"/>
		<path class="st0" d="M453.5,44.5H434c0.4,1.6,1.2,2.9,2.5,3.8c1.3,0.9,2.9,1.4,4.9,1.4c1.3,0,2.5-0.2,3.6-0.6c1-0.4,2-1,2.9-1.9
			l4,4.3c-2.4,2.8-6,4.2-10.7,4.2c-2.9,0-5.5-0.6-7.7-1.7c-2.2-1.1-4-2.7-5.2-4.7c-1.2-2-1.8-4.3-1.8-6.9c0-2.5,0.6-4.8,1.8-6.8
			c1.2-2,2.8-3.6,4.9-4.7c2.1-1.1,4.4-1.7,7-1.7c2.5,0,4.8,0.5,6.9,1.6c2,1.1,3.7,2.6,4.8,4.7c1.2,2,1.8,4.4,1.8,7.1
			C453.6,42.6,453.6,43.3,453.5,44.5z M436,36.2c-1.2,1-1.9,2.3-2.1,3.9h12.7c-0.3-1.6-1-2.9-2.1-3.9c-1.2-1-2.6-1.5-4.2-1.5
			C438.5,34.8,437.1,35.2,436,36.2z"/>
		<path class="st0" d="M498.4,32c1.9,1.9,2.9,4.8,2.9,8.6v14.8h-7.5V41.7c0-2-0.4-3.6-1.3-4.6c-0.8-1-2.1-1.5-3.6-1.5
			c-1.8,0-3.2,0.6-4.2,1.7c-1,1.1-1.5,2.8-1.5,5.1v13h-7.5V41.7c0-4.1-1.6-6.1-4.9-6.1c-1.7,0-3.1,0.6-4.1,1.7
			c-1,1.1-1.5,2.8-1.5,5.1v13h-7.5V29.5h7.1v3c1-1.1,2.1-1.9,3.5-2.5c1.4-0.6,2.9-0.9,4.6-0.9c1.8,0,3.5,0.4,4.9,1.1
			c1.5,0.7,2.7,1.8,3.6,3.1c1.1-1.3,2.4-2.4,4-3.1c1.6-0.7,3.4-1.1,5.3-1.1C493.9,29.1,496.5,30.1,498.4,32z"/>
		<path class="st0" d="M532.2,29.5l-11.7,27.4c-1.2,3-2.6,5.1-4.4,6.3c-1.7,1.2-3.8,1.8-6.3,1.8c-1.3,0-2.7-0.2-4-0.6
			c-1.3-0.4-2.4-1-3.2-1.7l2.7-5.3c0.6,0.5,1.2,0.9,2,1.2c0.8,0.3,1.5,0.4,2.2,0.4c1,0,1.9-0.2,2.5-0.7c0.6-0.5,1.2-1.3,1.7-2.5
			l0.1-0.2l-11.2-26h7.7l7.2,17.5l7.3-17.5H532.2z"/>
		<path class="st1" d="M550,19.4h6.7l-15.8,45.2h-6.7L550,19.4z"/>
		<path class="st1" d="M563.4,19.4h6.7l-15.8,45.2h-6.7L563.4,19.4z"/>
	</g>
</g>
</svg>
